<?xml version="1.0" encoding="utf-8"?>
<svg width="497" height="336" viewBox="0 0 497 336" fill="none" xmlns="http://www.w3.org/2000/svg">
  <path
    d="M11 222.33H125.821C102.365 237.313 75.7551 269.058 73.1094 325.767L72.8652 331H78.1039H176.843H176.885L176.927 330.999C192.178 330.742 214.085 324.624 232.61 307.311C250.561 290.534 264.962 263.601 267.408 222.33H281.333H281.367L281.401 222.33C306.883 221.983 356.179 200.311 365.847 122.24H486H491.219L490.995 117.026C490.246 99.5601 484.494 73.1675 469.563 50.3159C454.513 27.2811 430.077 7.81675 392.426 5.0138L392.24 5H392.054H82.8971H77.9288L77.8972 9.96818C77.8136 23.0955 80.4981 43.8337 88.8094 63.9338C95.0529 79.033 104.596 94.0501 118.776 105.09H103.508C84.5403 105.09 61.6683 111.047 42.7119 128.266C23.696 145.54 9.15204 173.661 6.01308 216.969L5.62449 222.33H11Z"
    stroke="black"
    stroke-width="10"
  />
  <path d="M267.912 202.078C324.663 198.265 340.129 150.286 340.768 126.772C272.865 126.613 130.924 126.296 106.383 126.296C48.8658 128.583 31.93 177.771 30.6519 202.078H267.912Z" fill="black" />
  <path d="M175.884 101.511C119.9 99.9861 102.709 50.0362 101.111 25.2519H376.237C442.574 26.7771 463.952 76.727 466.348 101.511H175.884Z" fill="black" />
  <path d="M172.529 308.365C227.746 304.933 241.869 254.825 242.029 230.199H172.529C115.778 235.919 100.951 284.693 100.632 308.365H172.529Z" fill="#FF0000" />
</svg>
